# xmcd
#
# Track frame offsets:
#	150
#	30196
#	76971
#	113985
#	170503
#	260972
#
# Disc length: 4086 seconds
#
# Revision: 1
# Processed by: cddbd v1.5.2PL0 Copyright (c) Steve Scherf et al.
# Submitted via: audiograbber 1.83.01
#
DISCID=460ff406
DTITLE=Grateful Dead - 79-08-04 Oakland Auditorium Arena, Oakland CA
DYEAR=1900
DGENRE=
TTITLE0=Passenger
TTITLE1=Friend Of The Devil
TTITLE2=Samson and Delilah
TTITLE3=Shakedown Street
TTITLE4=Playing In The Band
TTITLE5=Drums
EXTD=
EXTT0=
EXTT1=
EXTT2=
EXTT3=
EXTT4=
EXTT5=
PLAYORDER=
